<?xml version="1.0" encoding="UTF-8"?>
<svg width="118" height="30" viewBox="0 0 118 30" fill="none" xmlns="http://www.w3.org/2000/svg">
<path fill-rule="evenodd" clip-rule="evenodd" d="M1.65934 12.3184L4.26148 9.71548L9.46542 14.9201L4.26115 20.1244L1.65901 17.5222C0.222258 16.0851 0.222406 13.7553 1.65934 12.3184Z" fill="#FF2941"/>
<path fill-rule="evenodd" clip-rule="evenodd" d="M4.26147 20.1244L9.46542 14.9201L14.6697 20.1244L9.46542 25.3287L4.26147 20.1244Z" fill="#FF6F43"/>
<path fill-rule="evenodd" clip-rule="evenodd" d="M4.26147 9.71548L6.92773 7.04914L9.46542 4.51154L14.67 9.71548L9.46542 14.9201L4.26147 9.71548Z" fill="#D0154C"/>
<path fill-rule="evenodd" clip-rule="evenodd" d="M9.46533 25.3287L14.6696 20.1244L19.8739 25.3287L17.2717 27.9308C16.5816 28.621 15.6456 29.0087 14.6696 29.0087C13.6936 29.0087 12.7576 28.621 12.0675 27.9308L9.46533 25.3287Z" fill="#FFB144"/>
<path fill-rule="evenodd" clip-rule="evenodd" d="M14.6699 20.1244L19.8742 14.9201L25.0786 20.1244L19.8742 25.3287L14.6699 20.1244Z" fill="#FF6F43"/>
<path fill-rule="evenodd" clip-rule="evenodd" d="M9.46533 4.51154L12.0682 1.9094C12.7583 1.21925 13.6944 0.831528 14.6704 0.831528C15.6463 0.831528 16.5824 1.21925 17.2725 1.9094L19.8746 4.51154L14.6699 9.71548L9.46533 4.51154Z" fill="#9E0054"/>
<path fill-rule="evenodd" clip-rule="evenodd" d="M14.6699 9.71549L19.8742 4.51122L25.0786 9.71549L19.8742 14.9198L14.6699 9.71549Z" fill="#D0154C"/>
<path fill-rule="evenodd" clip-rule="evenodd" d="M17.6649 12.7108L19.8742 14.9201L14.6699 20.1244L11.8208 22.9735L11.8227 17.2771L9.46533 14.9201L14.6537 9.73201L17.6629 6.68011L17.6649 12.7108Z" fill="white"/>
<path fill-rule="evenodd" clip-rule="evenodd" d="M19.8743 14.9201L25.0786 9.71548L27.6808 12.3184C29.1179 13.7555 29.1179 16.0855 27.6808 17.5226L25.0786 20.1248L19.8743 14.9201Z" fill="#FF2941"/>
<path fill-rule="evenodd" clip-rule="evenodd" d="M37.8535 21.6608H39.2744V9.84051H43.9116V8.49866H33.1965V9.84051H37.8535V21.6608ZM48.036 21.9568C49.3513 21.9568 50.3677 21.618 51.0851 20.9404C51.8025 20.2629 52.161 19.2992 52.1605 18.0495V11.8143H50.7397V17.7343C50.7397 18.7342 50.5194 19.4676 50.0787 19.9346C49.638 20.4015 48.9572 20.635 48.0363 20.6351C47.1019 20.6351 46.4178 20.4016 45.984 19.9346C45.5501 19.4675 45.333 18.7341 45.3327 17.7343V11.8143H43.9117V18.05C43.9117 19.2999 44.2702 20.2636 44.9872 20.9409C45.7041 21.6183 46.7205 21.9571 48.0363 21.9573L48.036 21.9568ZM54.824 21.6608H56.2448V13.2939C56.9419 13.1755 57.4747 13.0899 57.8432 13.0373C58.2421 12.9828 58.6443 12.9564 59.0469 12.9584C59.3636 12.9585 59.6799 12.9783 59.9942 13.0176V11.7547C59.789 11.6906 59.5771 11.6508 59.3627 11.6362C58.5004 11.6338 57.6414 11.7433 56.8072 11.9619C56.1325 12.1307 55.4699 12.345 54.8241 12.6032V21.6608H54.824ZM65.8352 11.656C65.4063 11.6671 64.9798 11.7233 64.5627 11.8237C64.0959 11.9239 63.6373 12.0592 63.191 12.2286V7.65086H61.7701V19.9835C61.7701 21.2991 63.0857 21.9569 65.7168 21.9568C66.9665 21.9568 68.0452 21.5654 68.953 20.7827C69.8608 20 70.3213 18.6087 70.3344 16.6091C70.3344 15.0569 69.9561 13.8433 69.1997 12.9683C68.4432 12.0932 67.3217 11.6558 65.8352 11.656ZM65.5194 20.6545C64.9656 20.6653 64.4134 20.5921 63.8815 20.4375C63.4209 20.2929 63.1907 20.0298 63.1909 19.6482V13.6487C63.5968 13.4206 64.0316 13.2481 64.4834 13.1357C64.9249 13.0206 65.379 12.9609 65.8352 12.9581C66.8613 12.9581 67.6177 13.2837 68.1045 13.9349C68.5912 14.5861 68.8346 15.4774 68.8346 16.6087C68.8346 17.8587 68.6011 18.8453 68.1341 19.5688C67.667 20.2922 66.7955 20.6539 65.5194 20.654V20.6545ZM76.5507 21.957C77.9844 21.957 79.096 21.4997 79.8857 20.5853C80.6754 19.6708 81.0698 18.398 81.069 16.7668C81.069 15.1752 80.6941 13.9222 79.9444 13.0077C79.1946 12.0932 78.0502 11.6359 76.511 11.636C75.0509 11.636 73.936 12.0668 73.1661 12.9285C72.3963 13.7902 72.0115 15.0696 72.0118 16.7667C72.0118 18.4376 72.3899 19.7202 73.1463 20.6147C73.9027 21.5092 75.0374 21.9564 76.5507 21.9566V21.957ZM76.5309 20.6545C74.4651 20.6545 73.4322 19.3587 73.4322 16.7671C73.4322 14.215 74.4651 12.939 76.5309 12.9388C77.6357 12.9388 78.4314 13.2677 78.9181 13.9255C79.4048 14.5832 79.6483 15.5304 79.6485 16.7671C79.6485 19.3589 78.6093 20.6548 76.5309 20.6545ZM84.6601 21.661V8.06451H83.2397V21.6608H84.6601V21.661ZM91.3698 21.957C92.8034 21.957 93.9151 21.4997 94.7048 20.5853C95.4944 19.6708 95.8891 18.398 95.8889 16.7668C95.8889 15.1752 95.5137 13.9222 94.7634 13.0077C94.014 12.0932 92.8695 11.636 91.3301 11.636C89.87 11.636 88.7551 12.0668 87.9852 12.9285C87.2154 13.7902 86.8306 15.0696 86.8308 16.7667C86.8308 18.4376 87.209 19.7202 87.9654 20.6147C88.7217 21.5092 89.8565 21.9564 91.3698 21.9566V21.957ZM91.3499 20.6545C89.2842 20.6545 88.2516 19.3587 88.2521 16.7671C88.2521 14.215 89.2847 12.939 91.3499 12.9388C92.4547 12.9388 93.2507 13.2677 93.738 13.9255C94.2239 14.5835 94.4671 15.5307 94.4676 16.7671C94.4676 19.3589 93.4284 20.6548 91.3499 20.6545ZM102.361 11.656C101.019 11.656 99.8874 12.0441 98.9669 12.8203C98.0455 13.5967 97.5784 14.9912 97.5655 17.0037C97.5655 18.5562 97.9436 19.7698 98.7 20.6445C99.4563 21.5193 100.578 21.9567 102.065 21.9568C102.494 21.9457 102.921 21.8895 103.338 21.7891C103.805 21.6889 104.263 21.5535 104.709 21.3842V22.1144C104.709 22.7325 104.505 23.239 104.097 23.6338C103.69 24.0286 102.887 24.2259 101.69 24.2258C101.256 24.2295 100.823 24.1899 100.397 24.1074C100.009 24.0284 99.5583 23.9166 99.0454 23.772V25.1138C99.1247 25.1268 99.3057 25.1696 99.5883 25.242C99.8709 25.3145 100.206 25.3869 100.595 25.4591C101.008 25.5336 101.427 25.57 101.847 25.5677C103.439 25.5677 104.551 25.2289 105.182 24.5513C105.815 23.8738 106.13 23.0482 106.13 22.0748V14.1032C106.13 13.2744 105.765 12.6594 105.034 12.2581C104.305 11.857 103.414 11.6564 102.361 11.6562V11.656ZM99.0649 17.0036C99.0649 15.754 99.3051 14.7673 99.7854 14.0435C100.266 13.3198 101.164 12.958 102.479 12.9583C103.162 12.9583 103.705 13.0536 104.107 13.2443C104.508 13.4352 104.708 13.7871 104.709 14.3001V19.9636C104.303 20.1918 103.868 20.3644 103.416 20.4766C102.975 20.5917 102.521 20.6514 102.064 20.6542C101.038 20.6542 100.282 20.3286 99.7953 19.6774C99.3089 19.0262 99.0654 18.1349 99.0649 17.0036ZM112.839 21.9566C114.272 21.9566 115.384 21.4994 116.174 20.585C116.963 19.6705 117.358 18.3977 117.358 16.7665C117.358 15.1749 116.983 13.9219 116.233 13.0073C115.483 12.0928 114.339 11.6356 112.799 11.6357C111.339 11.6357 110.224 12.0665 109.454 12.9282C108.684 13.7899 108.299 15.0692 108.3 16.7663C108.3 18.4372 108.678 19.7199 109.434 20.6144C110.191 21.5088 111.325 21.9561 112.839 21.9562V21.9566ZM112.819 20.6542C110.753 20.6542 109.72 19.3584 109.721 16.7667C109.721 14.2147 110.754 12.9386 112.819 12.9385C113.924 12.9385 114.72 13.2674 115.207 13.9251C115.694 14.5829 115.937 15.5301 115.937 16.7667C115.937 19.3586 114.897 20.6544 112.819 20.6542Z" fill="#202020"/>
</svg>
